<svg width="75" height="75" viewBox="0 0 75 75" fill="none" xmlns="http://www.w3.org/2000/svg">
<path d="M56.25 6.25H40.625C40.625 7.96875 39.2188 9.375 37.5 9.375C35.7812 9.375 34.375 7.96875 34.375 6.25H18.75C15.3125 6.25 12.5 9.0625 12.5 12.5V62.5C12.5 65.9375 15.3125 68.75 18.75 68.75H56.25C59.6875 68.75 62.5 65.9375 62.5 62.5V12.5C62.5 9.0625 59.6875 6.25 56.25 6.25Z" fill="#455A64"/>
<path d="M56.25 64.0625H18.75C17.8125 64.0625 17.1875 63.4375 17.1875 62.5V12.5C17.1875 11.5625 17.8125 10.9375 18.75 10.9375H56.25C57.1875 10.9375 57.8125 11.5625 57.8125 12.5V62.5C57.8125 63.4375 57.1875 64.0625 56.25 64.0625Z" fill="white"/>
<path d="M40.625 6.25C40.625 7.96875 39.2188 9.375 37.5 9.375C35.7812 9.375 34.375 7.96875 34.375 6.25H23.4375V12.5C23.4375 14.2188 24.8438 15.625 26.5625 15.625H48.4375C50.1562 15.625 51.5625 14.2188 51.5625 12.5V6.25H40.625Z" fill="#90A4AE"/>
<path d="M37.5 0C34.0625 0 31.25 2.8125 31.25 6.25C31.25 9.6875 34.0625 12.5 37.5 12.5C40.9375 12.5 43.75 9.6875 43.75 6.25C43.75 2.8125 40.9375 0 37.5 0ZM37.5 9.375C35.7812 9.375 34.375 7.96875 34.375 6.25C34.375 4.53125 35.7812 3.125 37.5 3.125C39.2188 3.125 40.625 4.53125 40.625 6.25C40.625 7.96875 39.2188 9.375 37.5 9.375Z" fill="#90A4AE"/>
<path d="M32.8125 31.25H51.5625V34.375H32.8125V31.25ZM23.4375 29.6875H29.6875V35.9375H23.4375V29.6875Z" fill="#CFD8DC"/>
<path d="M32.8125 45.3125H51.5625V48.4375H32.8125V45.3125ZM23.4375 43.75H29.6875V50H23.4375V43.75Z" fill="#03A9F4"/>
</svg>
