<svg width="65" height="67" viewBox="0 0 65 67" fill="none" xmlns="http://www.w3.org/2000/svg">
<path d="M16.625 23.6638L31.5313 7.5536C35.5813 3.18328 37.6031 1 40.0625 1C42.5219 1 44.5469 3.18328 48.5937 7.5536L63.5 23.6638M21.3125 19.8865V65.214M58.8125 65.214V19.8865" stroke="black" stroke-width="2" stroke-linecap="round" stroke-linejoin="round"/>
<path d="M5.6875 42.5501C8.27633 42.5501 10.375 39.1678 10.375 34.9955C10.375 30.8232 8.27633 27.4409 5.6875 27.4409C3.09867 27.4409 1 30.8232 1 34.9955C1 39.1678 3.09867 42.5501 5.6875 42.5501Z" stroke="black" stroke-width="2" stroke-linecap="round" stroke-linejoin="round"/>
<path d="M5.6875 42.5502V65.214M1 65.214H63.5M32.25 65.214V50.1048C32.25 46.5428 32.25 44.7637 33.1656 43.657C34.0813 42.5502 35.5531 42.5502 38.5 42.5502H41.625C44.5719 42.5502 46.0438 42.5502 46.9594 43.657C47.875 44.7637 47.875 46.5428 47.875 50.1048V65.214M36.9375 31.2184H43.1875M36.9375 19.8865H43.1875" stroke="black" stroke-width="2" stroke-linecap="round" stroke-linejoin="round"/>
</svg>
