<svg width="18" height="21" viewBox="0 0 18 21" fill="none" xmlns="http://www.w3.org/2000/svg">
<path d="M15.1333 2.78346C14.2888 1.98345 13.3444 1.36123 12.2999 0.916789C11.2555 0.472344 10.1555 0.250121 8.99992 0.250121C7.84436 0.250121 6.73325 0.472344 5.66659 0.916789C4.59992 1.36123 3.66659 1.98345 2.86659 2.78346C2.06659 3.58345 1.44436 4.51679 0.999919 5.58346C0.555474 6.65012 0.333252 7.76123 0.333252 8.91679C0.333252 10.0723 0.555474 11.1723 0.999919 12.2168C1.44436 13.2612 2.06659 14.2057 2.86659 15.0501L7.46659 19.6501C7.86659 20.0501 8.36659 20.2501 8.96659 20.2501C9.56659 20.2501 10.0888 20.0501 10.5333 19.6501L15.1333 15.0501C15.9333 14.2057 16.5555 13.2612 16.9999 12.2168C17.4444 11.1723 17.6666 10.0723 17.6666 8.91679C17.6666 7.76123 17.4444 6.65012 16.9999 5.58346C16.5555 4.51679 15.9333 3.58345 15.1333 2.78346ZM14.2666 14.1835L9.66659 18.7835C9.48881 18.9612 9.26659 19.0501 8.99992 19.0501C8.73325 19.0501 8.48881 18.9612 8.26659 18.7835L3.66659 14.1835C2.95547 13.4723 2.42214 12.6612 2.06659 11.7501C1.71103 10.839 1.53325 9.88346 1.53325 8.88346C1.53325 7.88345 1.71103 6.9279 2.06659 6.01679C2.42214 5.10568 2.95547 4.30568 3.66659 3.61679C4.3777 2.9279 5.18881 2.39457 6.09992 2.01679C7.01103 1.63901 7.96659 1.45012 8.96659 1.45012C9.96659 1.45012 10.9221 1.63901 11.8333 2.01679C12.7444 2.39457 13.5555 2.91679 14.2666 3.58345C15.2444 4.56123 15.8999 5.69457 16.2333 6.98346C16.5666 8.27234 16.5666 9.56123 16.2333 10.8501C15.8999 12.139 15.2444 13.2501 14.2666 14.1835ZM8.99992 5.78346C8.15547 5.78346 7.42214 6.09457 6.79992 6.71679C6.1777 7.33901 5.86659 8.07234 5.86659 8.91679C5.86659 9.76123 6.1777 10.4835 6.79992 11.0835C7.42214 11.6835 8.15547 11.9835 8.99992 11.9835C9.84436 11.9835 10.5666 11.6835 11.1666 11.0835C11.7666 10.4835 12.0666 9.76123 12.0666 8.91679C12.0666 8.07234 11.7666 7.33901 11.1666 6.71679C10.5666 6.09457 9.84436 5.78346 8.99992 5.78346ZM8.99992 10.8501C8.46659 10.8501 8.01103 10.6612 7.63325 10.2835C7.25547 9.90568 7.06659 9.45012 7.06659 8.91679C7.06659 8.38345 7.25547 7.9279 7.63325 7.55012C8.01103 7.17234 8.46659 6.98346 8.99992 6.98346C9.53325 6.98346 9.98881 7.17234 10.3666 7.55012C10.7444 7.9279 10.9333 8.38345 10.9333 8.91679C10.9333 9.45012 10.7444 9.90568 10.3666 10.2835C9.98881 10.6612 9.53325 10.8501 8.99992 10.8501Z" fill="white"/>
</svg>
