<svg width="20" height="15" viewBox="0 0 20 15" fill="none" xmlns="http://www.w3.org/2000/svg">
<path d="M17.5333 3.89676H8.73333C8.28889 3.89676 7.86667 4.0301 7.46667 4.29676C7.37778 3.6301 7.1 3.08565 6.63333 2.66343C6.16667 2.24121 5.62222 2.0301 5 2.0301C4.51111 2.0301 4.06667 2.14121 3.66667 2.36343V1.36343C3.66667 1.18565 3.61111 1.04121 3.5 0.930098C3.38889 0.818987 3.24444 0.763432 3.06667 0.763432H0.6C0.422222 0.763432 0.277778 0.818987 0.166667 0.930098C0.0555556 1.04121 0 1.18565 0 1.36343V13.8968C0 14.0745 0.0555556 14.219 0.166667 14.3301C0.277778 14.4412 0.422222 14.4968 0.6 14.4968H3.06667C3.24444 14.4968 3.38889 14.4412 3.5 14.3301C3.61111 14.219 3.66667 14.0745 3.66667 13.8968V11.9634H16.3333V13.8968C16.3333 14.0745 16.3889 14.219 16.5 14.3301C16.6111 14.4412 16.7556 14.4968 16.9333 14.4968H19.4C19.5778 14.4968 19.7222 14.4412 19.8333 14.3301C19.9444 14.219 20 14.0745 20 13.8968V6.36343C20 5.69676 19.7556 5.11899 19.2667 4.6301C18.7778 4.14121 18.2 3.89676 17.5333 3.89676ZM5 3.16343C5.35556 3.16343 5.65556 3.29676 5.9 3.56343C6.14444 3.8301 6.26667 4.14121 6.26667 4.49676C6.26667 4.85232 6.14444 5.15232 5.9 5.39676C5.65556 5.64121 5.35556 5.76343 5 5.76343C4.64444 5.76343 4.33333 5.64121 4.06667 5.39676C3.8 5.15232 3.66667 4.85232 3.66667 4.49676C3.66667 4.14121 3.8 3.8301 4.06667 3.56343C4.33333 3.29676 4.64444 3.16343 5 3.16343ZM3.66667 6.56343C4.06667 6.8301 4.5 6.96343 4.96667 6.96343C5.43333 6.96343 5.86667 6.8301 6.26667 6.56343V8.29676H3.66667V6.56343ZM18.8 13.2968H17.4667V11.3634C17.4667 11.2301 17.4111 11.1079 17.3 10.9968C17.1889 10.8857 17.0667 10.8301 16.9333 10.8301H3.06667C2.93333 10.8301 2.81111 10.8857 2.7 10.9968C2.58889 11.1079 2.53333 11.2301 2.53333 11.3634V13.2968H1.2V1.96343H2.53333V8.89676C2.53333 9.0301 2.58889 9.16343 2.7 9.29676C2.81111 9.4301 2.93333 9.49676 3.06667 9.49676H18.8V13.2968ZM18.8 8.29676H7.46667V6.36343C7.46667 6.00788 7.58889 5.70788 7.83333 5.46343C8.07778 5.21899 8.37778 5.09676 8.73333 5.09676H17.5333C17.8889 5.09676 18.1889 5.21899 18.4333 5.46343C18.6778 5.70788 18.8 6.00788 18.8 6.36343V8.29676Z" fill="white"/>
</svg>
