<svg width="31" height="36" viewBox="0 0 31 36" fill="none" xmlns="http://www.w3.org/2000/svg">
<path d="M16.5734 21.8233C16.34 21.8233 16.1456 21.7455 15.99 21.59C14.9789 20.6566 14.5122 19.5289 14.59 18.2066C14.59 17.1955 14.8234 16.2622 15.29 15.4066C15.3678 15.1733 15.5039 15.0372 15.6984 14.9983C15.8928 14.9594 16.0872 14.9983 16.2817 15.115C16.4761 15.2316 16.5928 15.3872 16.6317 15.5816C16.6706 15.7761 16.6511 15.9511 16.5734 16.1066C16.2622 16.4955 16.0678 17.04 15.99 17.74C15.8345 18.8289 16.1845 19.7622 17.04 20.54C17.2734 20.7733 17.3317 21.0455 17.215 21.3566C17.0984 21.6677 16.8456 21.8233 16.4567 21.8233H16.5734ZM3.62336 24.9733C2.7678 24.8955 2.02891 24.5455 1.40669 23.9233C0.706689 23.2233 0.356689 22.3483 0.356689 21.2983C0.356689 20.2483 0.706689 19.3733 1.40669 18.6733L8.75669 11.2066C9.0678 10.9733 9.34002 10.7789 9.57336 10.6233C9.80669 10.4677 10.0206 10.4289 10.215 10.5066C10.4095 10.5844 10.5456 10.7011 10.6234 10.8566C10.7011 11.0122 10.7206 11.1872 10.6817 11.3816C10.6428 11.5761 10.5261 11.7316 10.3317 11.8483C10.1372 11.965 9.96224 12.1011 9.80669 12.2566L2.45669 19.7233C1.99002 20.1122 1.75669 20.6372 1.75669 21.2983C1.75669 21.9594 1.99002 22.4844 2.45669 22.8733C2.69002 23.1844 3.00113 23.3789 3.39002 23.4566L5.60669 21.24C5.76225 21.0844 5.95669 21.0066 6.19002 21.0066L7.24002 21.24L7.82336 20.6566V18.79C7.82336 18.6344 7.90113 18.4789 8.05669 18.3233C8.21224 18.1677 8.3678 18.09 8.52336 18.09L10.5067 17.9733L13.0734 15.4066L13.3067 15.1733C13.3845 15.0177 13.5206 14.9205 13.715 14.8816C13.9095 14.8427 14.1039 14.8816 14.2984 14.9983C14.4928 15.115 14.6095 15.2705 14.6484 15.465C14.6872 15.6594 14.6289 15.8344 14.4734 15.99L14.1234 16.4566L11.3234 19.2566C11.1678 19.4122 11.0122 19.49 10.8567 19.49H9.34002V21.0066C9.34002 21.24 9.26225 21.3955 9.10669 21.4733L8.05669 22.64C7.90113 22.7955 7.70669 22.8344 7.47336 22.7566L6.42336 22.64L4.20669 24.8566C4.05113 24.9344 3.85669 24.9733 3.62336 24.9733ZM16.8067 16.5733C15.4067 16.5733 14.1039 16.2622 12.8984 15.64C11.6928 15.0177 10.7011 14.1427 9.92336 13.015C9.14558 11.8872 8.69836 10.6233 8.58169 9.2233C8.46502 7.8233 8.67891 6.50108 9.22336 5.25663C9.7678 4.01219 10.5845 2.98163 11.6734 2.16497C12.7622 1.3483 14.0067 0.823299 15.4067 0.589966C15.64 0.512188 15.8539 0.589966 16.0484 0.823299C16.2428 1.05663 16.3011 1.30941 16.2234 1.58163C16.1456 1.85386 15.9511 2.02885 15.64 2.10663C13.9289 2.33997 12.5484 3.15663 11.4984 4.55663C10.4484 5.95663 10.04 7.53163 10.2734 9.28163C10.5067 11.0316 11.2845 12.4511 12.6067 13.54C13.9289 14.6289 15.4456 15.1344 17.1567 15.0566C18.8678 14.9789 20.3261 14.2983 21.5317 13.015C22.7372 11.7316 23.34 10.2344 23.34 8.5233C23.34 7.43441 23.1067 6.4233 22.64 5.48997C22.1734 4.55663 21.4734 3.77885 20.54 3.15663C20.3845 3.00108 20.3067 2.82608 20.3067 2.63163C20.3067 2.43719 20.365 2.26219 20.4817 2.10663C20.5984 1.95108 20.7539 1.85386 20.9484 1.81496C21.1428 1.77608 21.3178 1.83441 21.4734 1.98997C22.8734 3.00108 23.865 4.3233 24.4484 5.95663C25.0317 7.58997 25.0511 9.24274 24.5067 10.915C23.9622 12.5872 22.99 13.9483 21.59 14.9983C20.19 16.0483 18.5956 16.5733 16.8067 16.5733ZM18.44 2.10663C18.3622 2.10663 18.265 2.08719 18.1484 2.0483C18.0317 2.00941 17.915 1.91219 17.7984 1.75663C17.6817 1.60108 17.6428 1.40663 17.6817 1.1733C17.7206 0.939964 17.8761 0.764965 18.1484 0.6483C18.4206 0.531631 18.6734 0.570522 18.9067 0.764965C19.14 0.959412 19.2178 1.1733 19.14 1.40663C19.0622 1.63997 18.965 1.81496 18.8484 1.93163C18.7317 2.0483 18.5567 2.10663 18.3234 2.10663H18.44ZM17.8567 9.9233C17.0011 9.9233 16.3011 9.65108 15.7567 9.10663C15.2122 8.56219 14.94 7.88163 14.94 7.06497C14.94 6.2483 15.2122 5.5483 15.7567 4.96497C16.3011 4.38163 16.9817 4.08997 17.7984 4.08997C18.615 4.08997 19.315 4.38163 19.8984 4.96497C20.4817 5.5483 20.7734 6.2483 20.7734 7.06497C20.7734 7.88163 20.4817 8.56219 19.8984 9.10663C19.315 9.65108 18.6345 9.9233 17.8567 9.9233ZM17.8567 5.60663C17.4678 5.60663 17.1178 5.74274 16.8067 6.01497C16.4956 6.28719 16.34 6.61774 16.34 7.00663C16.34 7.39552 16.4956 7.74552 16.8067 8.05663C17.1178 8.36774 17.4678 8.5233 17.8567 8.5233C18.2456 8.5233 18.5761 8.36774 18.8484 8.05663C19.1206 7.74552 19.2567 7.39552 19.2567 7.00663C19.2567 6.61774 19.1206 6.28719 18.8484 6.01497C18.5761 5.74274 18.2456 5.60663 17.8567 5.60663ZM27.3067 35.59C27.1511 35.59 26.9956 35.5122 26.84 35.3566C26.6845 35.2011 26.6067 35.0455 26.6067 34.89V26.6066V26.2566C26.5289 26.0233 26.5678 25.8094 26.7234 25.615C26.8789 25.4205 27.0734 25.3622 27.3067 25.44H28.1234L20.3067 19.0233L12.3734 25.3233H13.19C13.5011 25.3233 13.715 25.4205 13.8317 25.615C13.9484 25.8094 14.0067 26.0233 14.0067 26.2566L13.89 26.6066V34.89C13.89 35.0455 13.8317 35.2011 13.715 35.3566C13.5984 35.5122 13.4234 35.59 13.19 35.59C12.9567 35.59 12.7817 35.5122 12.665 35.3566C12.5484 35.2011 12.49 35.0455 12.49 34.89V26.84H10.2734C9.96224 26.84 9.74836 26.6844 9.63169 26.3733C9.51502 26.0622 9.57336 25.79 9.80669 25.5566L19.84 17.5066C19.9178 17.4289 20.0539 17.39 20.2484 17.39C20.4428 17.39 20.6178 17.4289 20.7734 17.5066L30.69 25.5566C30.9234 25.79 30.9817 26.0622 30.865 26.3733C30.7484 26.6844 30.5345 26.84 30.2234 26.84H28.1234V34.89C28.1234 35.0455 28.0456 35.2011 27.89 35.3566C27.7345 35.5122 27.54 35.59 27.3067 35.59ZM20.3067 24.04C20.1511 24.04 19.9956 23.9622 19.84 23.8066C19.6845 23.6511 19.6067 23.4761 19.6067 23.2816C19.6067 23.0872 19.6845 22.9122 19.84 22.7566C22.4845 20.4233 23.69 18.0511 23.4567 15.64C23.2234 13.6955 22.1734 11.79 20.3067 9.9233C19.3734 8.98997 18.44 8.25108 17.5067 7.70663C17.1956 7.55108 17.04 7.31774 17.04 7.00663C17.04 6.69552 17.1761 6.48163 17.4484 6.36497C17.7206 6.2483 17.9734 6.26774 18.2067 6.4233C19.2956 7.04552 20.3456 7.90108 21.3567 8.98997C23.4567 11.09 24.6234 13.2289 24.8567 15.4066C25.1678 18.3622 23.8067 21.2011 20.7734 23.9233C20.6956 24.0011 20.54 24.04 20.3067 24.04ZM22.1734 35.3566C22.0178 35.3566 21.8622 35.2983 21.7067 35.1816C21.5511 35.065 21.4734 34.89 21.4734 34.6566V30.2233C21.4734 29.9122 21.3761 29.6594 21.1817 29.465C20.9872 29.2705 20.7345 29.1733 20.4234 29.1733H19.6067C19.2956 29.1733 19.0428 29.2705 18.8484 29.465C18.6539 29.6594 18.5567 29.9122 18.5567 30.2233V34.6566C18.5567 34.89 18.4789 35.065 18.3234 35.1816C18.1678 35.2983 17.9928 35.3566 17.7984 35.3566C17.6039 35.3566 17.4289 35.2983 17.2734 35.1816C17.1178 35.065 17.04 34.89 17.04 34.6566V30.2233C17.04 29.5233 17.2928 28.9205 17.7984 28.415C18.3039 27.9094 18.9067 27.6566 19.6067 27.6566H20.4234C21.1234 27.6566 21.7261 27.9094 22.2317 28.415C22.7372 28.9205 22.9511 29.5233 22.8734 30.2233V34.6566C22.9511 34.89 22.9122 35.065 22.7567 35.1816C22.6011 35.2983 22.4067 35.3566 22.1734 35.3566Z" fill="black"/>
</svg>
