<svg width="40" height="40" viewBox="0 0 40 40" fill="none" xmlns="http://www.w3.org/2000/svg">
<path d="M20.1233 26.8333C20.39 26.8333 20.59 26.7666 20.7233 26.6333C20.8566 26.5 20.9233 26.3 20.9233 26.0333V22.4333C20.9233 22.0777 20.79 21.8333 20.5233 21.7C20.2566 21.5666 19.99 21.5666 19.7233 21.7C19.4566 21.8333 19.3233 22.0777 19.3233 22.4333V26.0333C19.3233 26.3 19.4122 26.5 19.59 26.6333C19.7678 26.7666 19.9455 26.8333 20.1233 26.8333ZM20.1233 10.4333C20.39 10.4333 20.59 10.3666 20.7233 10.2333C20.8566 10.1 20.9233 9.94441 20.9233 9.76664V6.0333C20.9233 5.76664 20.79 5.56664 20.5233 5.4333C20.2566 5.29997 19.99 5.29997 19.7233 5.4333C19.4566 5.56664 19.3233 5.76664 19.3233 6.0333V9.76664C19.3233 9.94441 19.4122 10.1 19.59 10.2333C19.7678 10.3666 19.9455 10.4333 20.1233 10.4333ZM20.1233 18.7C20.39 18.7 20.59 18.6111 20.7233 18.4333C20.8566 18.2555 20.9233 18.0777 20.9233 17.9V14.3C20.9233 14.0333 20.8566 13.8333 20.7233 13.7C20.59 13.5666 20.4122 13.5 20.19 13.5C19.9678 13.5 19.7678 13.5666 19.59 13.7C19.4122 13.8333 19.3233 14.0333 19.3233 14.3V17.9C19.3233 18.0777 19.4122 18.2555 19.59 18.4333C19.7678 18.6111 19.9455 18.7 20.1233 18.7ZM25.59 10.4333C25.7678 10.4333 25.9455 10.3666 26.1233 10.2333C26.3011 10.1 26.39 9.94441 26.39 9.76664V6.0333C26.39 5.85553 26.3011 5.67775 26.1233 5.49997C25.9455 5.32219 25.7678 5.2333 25.59 5.2333C25.4122 5.2333 25.2344 5.32219 25.0567 5.49997C24.8789 5.67775 24.79 5.85553 24.79 6.0333V9.76664C24.79 9.94441 24.8789 10.1 25.0567 10.2333C25.2344 10.3666 25.4122 10.4333 25.59 10.4333ZM25.59 18.7C25.7678 18.7 25.9455 18.6111 26.1233 18.4333C26.3011 18.2555 26.39 18.0777 26.39 17.9V14.3C26.39 14.0333 26.3011 13.8333 26.1233 13.7C25.9455 13.5666 25.7678 13.5 25.59 13.5C25.4122 13.5 25.2344 13.5666 25.0567 13.7C24.8789 13.8333 24.79 14.0333 24.79 14.3V17.9C24.79 18.0777 24.8789 18.2555 25.0567 18.4333C25.2344 18.6111 25.4122 18.7 25.59 18.7ZM25.59 26.8333C25.7678 26.8333 25.9455 26.7666 26.1233 26.6333C26.3011 26.5 26.39 26.3 26.39 26.0333V22.4333C26.39 22.1666 26.3011 21.9666 26.1233 21.8333C25.9455 21.7 25.7678 21.6333 25.59 21.6333C25.4122 21.6333 25.2344 21.7 25.0567 21.8333C24.8789 21.9666 24.79 22.1666 24.79 22.4333V26.0333C24.79 26.3 24.8789 26.5 25.0567 26.6333C25.2344 26.7666 25.4122 26.8333 25.59 26.8333ZM34.6567 29.7666H35.3233C35.5011 29.7666 35.6567 29.7 35.79 29.5666C35.9233 29.4333 35.99 29.2555 35.99 29.0333C35.99 28.8111 35.9233 28.6333 35.79 28.5C35.6567 28.3666 35.5011 28.3 35.3233 28.3H34.6567C34.39 28.3 34.19 28.3666 34.0567 28.5C33.9233 28.6333 33.8567 28.8111 33.8567 29.0333C33.8567 29.2555 33.9233 29.4333 34.0567 29.5666C34.19 29.7 34.39 29.7666 34.6567 29.7666ZM34.6567 25.3666H35.3233C35.5011 25.3666 35.6567 25.3 35.79 25.1666C35.9233 25.0333 35.99 24.8555 35.99 24.6333C35.99 24.4111 35.9233 24.2111 35.79 24.0333C35.6567 23.8555 35.5011 23.7666 35.3233 23.7666H34.6567C34.39 23.7666 34.19 23.8555 34.0567 24.0333C33.9233 24.2111 33.8567 24.4111 33.8567 24.6333C33.8567 24.8555 33.9233 25.0333 34.0567 25.1666C34.19 25.3 34.39 25.3666 34.6567 25.3666ZM34.6567 34.1666H35.3233C35.5011 34.1666 35.6567 34.0777 35.79 33.9C35.9233 33.7222 35.99 33.5444 35.99 33.3666C35.99 33.1889 35.9233 33.0111 35.79 32.8333C35.6567 32.6555 35.5011 32.5666 35.3233 32.5666H34.6567C34.39 32.5666 34.19 32.6555 34.0567 32.8333C33.9233 33.0111 33.8567 33.1889 33.8567 33.3666C33.8567 33.5444 33.9233 33.7222 34.0567 33.9C34.19 34.0777 34.39 34.1666 34.6567 34.1666ZM10.9233 20.9666H11.59C11.7678 20.9666 11.9233 20.9 12.0566 20.7666C12.19 20.6333 12.2566 20.4555 12.2566 20.2333C12.2566 20.0111 12.19 19.8333 12.0566 19.7C11.9233 19.5666 11.7678 19.5 11.59 19.5H10.9233C10.6566 19.5 10.4566 19.5666 10.3233 19.7C10.19 19.8333 10.1233 20.0111 10.1233 20.2333C10.1233 20.4555 10.19 20.6333 10.3233 20.7666C10.4566 20.9 10.6566 20.9666 10.9233 20.9666ZM10.9233 16.5666H11.59C11.7678 16.5666 11.9233 16.5 12.0566 16.3666C12.19 16.2333 12.2566 16.0555 12.2566 15.8333C12.2566 15.6111 12.19 15.4333 12.0566 15.3C11.9233 15.1666 11.7678 15.1 11.59 15.1H10.9233C10.6566 15.1 10.4566 15.1666 10.3233 15.3C10.19 15.4333 10.1233 15.6111 10.1233 15.8333C10.1233 16.0555 10.19 16.2333 10.3233 16.3666C10.4566 16.5 10.6566 16.5666 10.9233 16.5666ZM10.9233 25.3666H11.59C11.7678 25.3666 11.9233 25.3 12.0566 25.1666C12.19 25.0333 12.2566 24.8555 12.2566 24.6333C12.2566 24.4111 12.19 24.2111 12.0566 24.0333C11.9233 23.8555 11.7678 23.7666 11.59 23.7666H10.9233C10.5678 23.7666 10.3233 23.9 10.19 24.1666C10.0566 24.4333 10.0566 24.7 10.19 24.9666C10.3233 25.2333 10.5678 25.3666 10.9233 25.3666ZM38.9233 17.5H31.7233V0.966637C31.7233 0.69997 31.6567 0.499969 31.5233 0.366634C31.39 0.233303 31.19 0.166637 30.9233 0.166637H14.79C14.6122 0.166637 14.4344 0.255524 14.2566 0.433304C14.0789 0.61108 13.99 0.788857 13.99 0.966637V10.5666H7.58998C7.4122 10.5666 7.23443 10.6333 7.05665 10.7666C6.87887 10.9 6.78998 11.1 6.78998 11.3666V20.8333C6.78998 21.1 6.87887 21.3 7.05665 21.4333C7.23443 21.5666 7.43443 21.6333 7.65665 21.6333C7.87887 21.6333 8.05665 21.5666 8.18998 21.4333C8.32332 21.3 8.38998 21.1 8.38998 20.8333V12.0333H13.99V37.7666H8.38998C8.12332 37.7666 7.92332 37.8555 7.78998 38.0333C7.65665 38.2111 7.58998 38.4111 7.58998 38.6333C7.58998 38.8555 7.65665 39.0333 7.78998 39.1666C7.92332 39.3 8.12332 39.3666 8.38998 39.3666H36.2566C37.2344 39.3666 38.0567 39.0333 38.7233 38.3666C39.39 37.7 39.7233 36.9222 39.7233 36.0333V18.3C39.7233 18.1222 39.6344 17.9444 39.4566 17.7666C39.2789 17.5889 39.1011 17.5 38.9233 17.5ZM20.9233 37.7666V31.7666H24.79V37.7666H20.9233ZM30.1233 37.7666H26.39V30.9666C26.39 30.7 26.3011 30.5 26.1233 30.3666C25.9455 30.2333 25.7678 30.1666 25.59 30.1666H20.1233C19.9455 30.1666 19.7678 30.2333 19.59 30.3666C19.4122 30.5 19.3233 30.7 19.3233 30.9666V37.7666H15.59V1.6333H30.1233V37.7666ZM38.1233 36.0333C38.1233 36.4777 37.9455 36.9 37.59 37.3C37.2344 37.7 36.79 37.9 36.2566 37.9H31.7233V19.1H38.1233V36.0333ZM9.72332 28.7C9.72332 27.3666 9.05665 26.0777 7.72332 24.8333C7.0122 24.1222 6.25665 23.5444 5.45665 23.1C5.27887 23.0111 5.05665 23.0111 4.78998 23.1C4.07887 23.5444 3.32332 24.1222 2.52332 24.8333C1.18998 26.0777 0.523315 27.3889 0.523315 28.7666C0.523315 30.1444 0.878871 31.3666 1.58998 32.4333C2.30109 33.5 3.23443 34.1222 4.38998 34.3V38.5666C4.38998 38.8333 4.45665 39.0333 4.58998 39.1666C4.72332 39.3 4.90109 39.3666 5.12332 39.3666C5.34554 39.3666 5.52332 39.3 5.65665 39.1666C5.78998 39.0333 5.85665 38.8333 5.85665 38.5666V34.3C7.0122 34.1222 7.94554 33.5 8.65665 32.4333C9.36776 31.3666 9.72332 30.1222 9.72332 28.7ZM1.98998 28.7C1.98998 27.9889 2.38998 27.1889 3.18998 26.3C3.72332 25.7666 4.38998 25.2333 5.18998 24.7C5.90109 25.2333 6.52332 25.7666 7.05665 26.3C7.85665 27.1889 8.25665 27.9889 8.25665 28.7C8.25665 29.6777 8.03443 30.5444 7.58998 31.3C7.14554 32.0555 6.56776 32.5222 5.85665 32.7V30.9666C5.85665 30.7 5.78998 30.5 5.65665 30.3666C5.52332 30.2333 5.34554 30.1666 5.12332 30.1666C4.90109 30.1666 4.72332 30.2333 4.58998 30.3666C4.45665 30.5 4.38998 30.7 4.38998 30.9666V32.7C3.67887 32.5222 3.10109 32.0555 2.65665 31.3C2.2122 30.5444 1.98998 29.6777 1.98998 28.7Z" fill="black"/>
</svg>
