<svg width="35" height="32" viewBox="0 0 35 32" fill="none" xmlns="http://www.w3.org/2000/svg">
<path d="M17.3301 30.2066H6.48014C5.85792 30.2066 5.35237 29.9927 4.96348 29.5649C4.57459 29.1371 4.38014 28.651 4.38014 28.1066V13.5232L15.3468 3.83991C15.8913 3.37325 16.5524 3.13991 17.3301 3.13991C18.1079 3.13991 18.769 3.37325 19.3135 3.83991L33.1968 16.0899C33.3524 16.2455 33.5468 16.3038 33.7801 16.2649C34.0135 16.226 34.2079 16.1288 34.3635 15.9732C34.519 15.8177 34.5774 15.6232 34.5385 15.3899C34.4996 15.1566 34.4024 14.9621 34.2468 14.8066L31.9135 12.8232V4.53991C31.9135 3.37325 31.4857 2.36213 30.6301 1.50658C29.7746 0.651022 28.7635 0.242689 27.5968 0.281578C26.4301 0.320467 25.4385 0.748245 24.6218 1.56491C23.8051 2.38158 23.3579 3.37325 23.2801 4.53991V5.23991L20.3635 2.67324C19.5079 1.89547 18.4968 1.50658 17.3301 1.50658C16.1635 1.50658 15.1524 1.89547 14.2968 2.67324L0.413477 14.8066C0.180143 14.9621 0.0634766 15.1566 0.0634766 15.3899C0.0634766 15.6232 0.141254 15.8177 0.29681 15.9732C0.452365 16.1288 0.64681 16.226 0.880143 16.2649C1.11348 16.3038 1.30792 16.2455 1.46348 16.0899L2.74681 15.0399V28.1066C2.74681 29.1177 3.11625 29.9927 3.85514 30.7316C4.59403 31.4705 5.46903 31.8399 6.48014 31.8399H17.3301C17.5635 31.8399 17.7579 31.7621 17.9135 31.6066C18.069 31.451 18.1468 31.2566 18.1468 31.0232C18.1468 30.7899 18.069 30.5955 17.9135 30.4399C17.7579 30.2844 17.5635 30.2066 17.3301 30.2066ZM24.9135 4.53991C24.9913 3.76213 25.2829 3.12047 25.7885 2.61491C26.294 2.10936 26.9163 1.87602 27.6551 1.91491C28.394 1.9538 29.0163 2.22602 29.5218 2.73158C30.0274 3.23713 30.2801 3.83991 30.2801 4.53991V11.3066L24.9135 6.63991V4.53991ZM17.3301 8.50658C16.2413 8.50658 15.3079 8.89547 14.5301 9.67324C13.7524 10.451 13.3635 11.3844 13.3635 12.4732C13.3635 13.5621 13.7524 14.4955 14.5301 15.2732C15.3079 16.051 16.2413 16.4399 17.3301 16.4399C18.419 16.4399 19.3524 16.051 20.1301 15.2732C20.9079 14.4955 21.2968 13.5621 21.2968 12.4732C21.2968 11.3844 20.9079 10.451 20.1301 9.67324C19.3524 8.89547 18.419 8.50658 17.3301 8.50658ZM19.6635 12.4732C19.6635 13.1732 19.4301 13.7371 18.9635 14.1649C18.4968 14.5927 17.9524 14.8066 17.3301 14.8066C16.7079 14.8066 16.1635 14.5927 15.6968 14.1649C15.2301 13.7371 14.9968 13.1927 14.9968 12.5316C14.9968 11.8705 15.2301 11.3066 15.6968 10.8399C16.1635 10.3732 16.7079 10.1399 17.3301 10.1399C17.9524 10.1399 18.4968 10.3732 18.9635 10.8399C19.4301 11.3066 19.6635 11.851 19.6635 12.4732ZM34.3635 30.5566L31.5635 27.6399C32.2635 26.6288 32.6135 25.501 32.6135 24.2566C32.6135 22.701 32.0496 21.3788 30.9218 20.2899C29.794 19.201 28.4524 18.6566 26.8968 18.6566C25.3413 18.6566 23.9996 19.201 22.8718 20.2899C21.744 21.3788 21.1801 22.7205 21.1801 24.3149C21.1801 25.9094 21.744 27.251 22.8718 28.3399C23.9996 29.4288 25.3413 29.9732 26.8968 29.9732C28.219 29.9732 29.3857 29.5844 30.3968 28.8066L33.0801 31.6066C33.2357 31.7621 33.4301 31.8594 33.6635 31.8982C33.8968 31.9371 34.1107 31.8788 34.3051 31.7232C34.4996 31.5677 34.5968 31.3732 34.5968 31.1399C34.5968 30.9066 34.519 30.7121 34.3635 30.5566ZM26.8968 28.3399C25.8079 28.3399 24.8551 27.951 24.0385 27.1732C23.2218 26.3955 22.8135 25.4427 22.8135 24.3149C22.8135 23.1871 23.2218 22.2344 24.0385 21.4566C24.8551 20.6788 25.8274 20.2899 26.9551 20.2899C28.0829 20.2899 29.0357 20.6788 29.8135 21.4566C30.5913 22.2344 30.9801 23.1871 30.9801 24.3149C30.9801 25.4427 30.5913 26.3955 29.8135 27.1732C29.0357 27.951 28.0635 28.3399 26.8968 28.3399Z" fill="black"/>
</svg>
