<svg width="21" height="21" viewBox="0 0 21 21" fill="none" xmlns="http://www.w3.org/2000/svg">
<path d="M20.95 10.7634C20.95 10.2745 20.7833 9.86343 20.45 9.5301C20.1166 9.19676 19.7055 9.0301 19.2166 9.0301H4.08328V3.6301C4.08328 3.18565 4.23884 2.80787 4.54995 2.49676C4.77217 2.27454 5.02773 2.14121 5.31662 2.09676C5.60551 2.05232 5.90551 2.07454 6.21662 2.16343C5.81662 2.78565 5.66106 3.47454 5.74995 4.2301C5.83884 4.98565 6.14995 5.6301 6.68328 6.16343L6.81662 6.36343C6.94995 6.45232 7.0944 6.49676 7.24995 6.49676C7.40551 6.49676 7.52773 6.45232 7.61662 6.36343L11.4166 2.56343C11.55 2.4301 11.6166 2.28565 11.6166 2.1301C11.6166 1.97454 11.55 1.8301 11.4166 1.69676L11.2833 1.56343C10.7055 0.985653 10.0055 0.674541 9.18328 0.630096C8.36106 0.585653 7.63884 0.807875 7.01662 1.29676C6.48328 0.985653 5.90551 0.86343 5.28328 0.930098C4.66106 0.996763 4.12773 1.25232 3.68328 1.69676C3.14995 2.2301 2.88328 2.87454 2.88328 3.6301V9.0301H2.68328C2.1944 9.0301 1.78328 9.19676 1.44995 9.5301C1.11662 9.86343 0.949951 10.2745 0.949951 10.7634C0.949951 11.1634 1.06106 11.5079 1.28328 11.7968C1.50551 12.0857 1.77217 12.2968 2.08328 12.4301V13.6968C2.08328 14.7634 2.37217 15.7412 2.94995 16.6301C3.52773 17.519 4.26106 18.2079 5.14995 18.6968L4.61662 19.7634C4.52773 19.9412 4.51662 20.0968 4.58328 20.2301C4.64995 20.3634 4.74995 20.4745 4.88328 20.5634C5.01662 20.6523 5.16106 20.6634 5.31662 20.5968C5.47217 20.5301 5.5944 20.4301 5.68328 20.2968L6.28328 19.0968C6.72773 19.1857 7.1944 19.2301 7.68328 19.2301H14.2166C14.7055 19.2301 15.1722 19.1857 15.6166 19.0968L16.2166 20.2968C16.3055 20.4301 16.4277 20.5301 16.5833 20.5968C16.7388 20.6634 16.8833 20.6523 17.0166 20.5634C17.15 20.4745 17.25 20.3634 17.3166 20.2301C17.3833 20.0968 17.3722 19.9412 17.2833 19.7634L16.75 18.6968C17.6388 18.2079 18.3722 17.519 18.95 16.6301C19.5277 15.7412 19.8166 14.7634 19.8166 13.6968V12.4301C20.1277 12.2968 20.3944 12.0857 20.6166 11.7968C20.8388 11.5079 20.95 11.1634 20.95 10.7634ZM10.15 2.16343L7.28328 5.09676C6.97217 4.65232 6.83884 4.18565 6.88329 3.69676C6.92773 3.20787 7.12773 2.78565 7.48328 2.4301C7.83884 2.07454 8.27217 1.87454 8.78329 1.8301C9.2944 1.78565 9.74995 1.89676 10.15 2.16343ZM2.68328 10.2301H19.2166C19.35 10.2301 19.4722 10.2857 19.5833 10.3968C19.6944 10.5079 19.75 10.6412 19.75 10.7968C19.75 10.9523 19.6944 11.0857 19.5833 11.1968C19.4722 11.3079 19.35 11.3634 19.2166 11.3634H2.68328C2.54995 11.3634 2.42773 11.3079 2.31662 11.1968C2.20551 11.0857 2.14995 10.9523 2.14995 10.7968C2.14995 10.6412 2.20551 10.5079 2.31662 10.3968C2.42773 10.2857 2.54995 10.2301 2.68328 10.2301ZM18.6166 13.6968C18.6166 14.4968 18.4166 15.2301 18.0166 15.8968C17.6166 16.5634 17.0833 17.0968 16.4166 17.4968C15.75 17.8968 15.0166 18.0968 14.2166 18.0968H7.68328C6.88329 18.0968 6.14995 17.8968 5.48328 17.4968C4.81662 17.0968 4.28328 16.5634 3.88328 15.8968C3.48328 15.2301 3.28328 14.4968 3.28328 13.6968V12.5634H18.6166V13.6968ZM9.41662 6.56343C9.41662 6.74121 9.47217 6.88565 9.58329 6.99676C9.6944 7.10787 9.82773 7.16343 9.98328 7.16343C10.1388 7.16343 10.2722 7.10787 10.3833 6.99676C10.4944 6.88565 10.55 6.74121 10.55 6.56343C10.55 6.38565 10.4944 6.24121 10.3833 6.1301C10.2722 6.01899 10.1388 5.96343 9.98328 5.96343C9.82773 5.96343 9.6944 6.01899 9.58329 6.1301C9.47217 6.24121 9.41662 6.38565 9.41662 6.56343ZM11.0833 4.89676C11.0833 5.07454 11.1388 5.21899 11.25 5.3301C11.3611 5.44121 11.4944 5.49676 11.65 5.49676C11.8055 5.49676 11.9388 5.44121 12.05 5.3301C12.1611 5.21899 12.2166 5.07454 12.2166 4.89676C12.2166 4.71899 12.1611 4.57454 12.05 4.46343C11.9388 4.35232 11.8055 4.29676 11.65 4.29676C11.4944 4.29676 11.3611 4.35232 11.25 4.46343C11.1388 4.57454 11.0833 4.71899 11.0833 4.89676ZM11.4833 6.96343C11.4833 7.09676 11.5388 7.2301 11.65 7.36343C11.7611 7.49676 11.8944 7.56343 12.05 7.56343C12.2055 7.56343 12.3388 7.49676 12.45 7.36343C12.5611 7.2301 12.6166 7.08565 12.6166 6.9301C12.6166 6.77454 12.5611 6.64121 12.45 6.5301C12.3388 6.41899 12.2055 6.36343 12.05 6.36343C11.8944 6.36343 11.7611 6.41899 11.65 6.5301C11.5388 6.64121 11.4833 6.78565 11.4833 6.96343Z" fill="white"/>
</svg>
