<svg width="21" height="21" viewBox="0 0 21 21" fill="none" xmlns="http://www.w3.org/2000/svg">
<path d="M16.7766 19.4301H14.3766C14.2432 19.4301 14.1099 19.4968 13.9766 19.6301C13.8432 19.7634 13.7766 19.9079 13.7766 20.0634C13.7766 20.219 13.8432 20.3523 13.9766 20.4634C14.1099 20.5745 14.2432 20.6301 14.3766 20.6301H16.7766C16.9544 20.6301 17.0988 20.5745 17.2099 20.4634C17.321 20.3523 17.3766 20.219 17.3766 20.0634C17.3766 19.9079 17.321 19.7634 17.2099 19.6301C17.0988 19.4968 16.9544 19.4301 16.7766 19.4301ZM12.0432 19.4301H9.70991C9.53214 19.4301 9.38769 19.4968 9.27658 19.6301C9.16547 19.7634 9.10991 19.9079 9.10991 20.0634C9.10991 20.219 9.16547 20.3523 9.27658 20.4634C9.38769 20.5745 9.53214 20.6301 9.70991 20.6301H12.0432C12.221 20.6301 12.3655 20.5745 12.4766 20.4634C12.5877 20.3523 12.6432 20.219 12.6432 20.0634C12.6432 19.9079 12.5877 19.7634 12.4766 19.6301C12.3655 19.4968 12.221 19.4301 12.0432 19.4301ZM20.3099 8.8301C20.1766 8.8301 20.0432 8.88565 19.9099 8.99676C19.7766 9.10787 19.7099 9.25232 19.7099 9.4301V11.7634C19.7099 11.9412 19.7766 12.0857 19.9099 12.1968C20.0432 12.3079 20.1877 12.3634 20.3432 12.3634C20.4988 12.3634 20.6321 12.3079 20.7432 12.1968C20.8544 12.0857 20.9099 11.9412 20.9099 11.7634V9.4301C20.9099 9.25232 20.8544 9.10787 20.7432 8.99676C20.6321 8.88565 20.4877 8.8301 20.3099 8.8301ZM20.3099 13.4968C20.1766 13.4968 20.0432 13.5634 19.9099 13.6968C19.7766 13.8301 19.7099 13.9634 19.7099 14.0968V16.4301C19.7099 16.6079 19.7766 16.7523 19.9099 16.8634C20.0432 16.9745 20.1877 17.0301 20.3432 17.0301C20.4988 17.0301 20.6321 16.9745 20.7432 16.8634C20.8544 16.7523 20.9099 16.6079 20.9099 16.4301V14.0968C20.9099 13.9634 20.8544 13.8301 20.7432 13.6968C20.6321 13.5634 20.4877 13.4968 20.3099 13.4968ZM7.37658 19.4301H6.77658V18.8968C6.77658 18.719 6.72102 18.5745 6.60991 18.4634C6.4988 18.3523 6.35436 18.2968 6.17658 18.2968C5.9988 18.2968 5.85436 18.3523 5.74325 18.4634C5.63213 18.5745 5.57658 18.719 5.57658 18.8968V20.0301C5.57658 20.2079 5.63213 20.3523 5.74325 20.4634C5.85436 20.5745 5.9988 20.6301 6.17658 20.6301H7.37658C7.50991 20.6301 7.63213 20.5745 7.74325 20.4634C7.85436 20.3523 7.90991 20.219 7.90991 20.0634C7.90991 19.9079 7.85436 19.7634 7.74325 19.6301C7.63213 19.4968 7.50991 19.4301 7.37658 19.4301ZM20.3099 5.29676H19.1766C18.9988 5.29676 18.8544 5.35232 18.7432 5.46343C18.6321 5.57454 18.5766 5.71898 18.5766 5.89676C18.5766 6.07454 18.6321 6.21898 18.7432 6.3301C18.8544 6.44121 18.9988 6.49676 19.1766 6.49676H19.7099V7.09676C19.7099 7.2301 19.7766 7.35232 19.9099 7.46343C20.0432 7.57454 20.1877 7.6301 20.3432 7.6301C20.4988 7.6301 20.6321 7.57454 20.7432 7.46343C20.8544 7.35232 20.9099 7.2301 20.9099 7.09676V5.89676C20.9099 5.71898 20.8544 5.57454 20.7432 5.46343C20.6321 5.35232 20.4877 5.29676 20.3099 5.29676ZM20.3099 18.2968C20.1766 18.2968 20.0432 18.3523 19.9099 18.4634C19.7766 18.5745 19.7099 18.719 19.7099 18.8968V19.4301H19.1766C18.9988 19.4301 18.8544 19.4968 18.7432 19.6301C18.6321 19.7634 18.5766 19.9079 18.5766 20.0634C18.5766 20.219 18.6321 20.3523 18.7432 20.4634C18.8544 20.5745 18.9988 20.6301 19.1766 20.6301H20.3099C20.4877 20.6301 20.6321 20.5745 20.7432 20.4634C20.8544 20.3523 20.9099 20.2079 20.9099 20.0301V18.8968C20.9099 18.719 20.8544 18.5745 20.7432 18.4634C20.6321 18.3523 20.4877 18.2968 20.3099 18.2968ZM16.7766 5.29676H16.1766V1.23009C16.1766 1.05232 16.1099 0.907873 15.9766 0.796762C15.8432 0.685652 15.7099 0.630095 15.5766 0.630095H1.50991C1.33213 0.630095 1.18769 0.685652 1.07658 0.796762C0.965468 0.907873 0.909912 1.05232 0.909912 1.23009V15.2968C0.909912 15.4301 0.965468 15.5634 1.07658 15.6968C1.18769 15.8301 1.33213 15.8968 1.50991 15.8968H5.57658V16.4301C5.57658 16.6079 5.63213 16.7523 5.74325 16.8634C5.85436 16.9745 5.9988 17.0301 6.17658 17.0301C6.35436 17.0301 6.4988 16.9745 6.60991 16.8634C6.72102 16.7523 6.77658 16.6079 6.77658 16.4301V6.49676H16.7766C16.9544 6.49676 17.0988 6.44121 17.2099 6.3301C17.321 6.21898 17.3766 6.07454 17.3766 5.89676C17.3766 5.71898 17.321 5.57454 17.2099 5.46343C17.0988 5.35232 16.9544 5.29676 16.7766 5.29676ZM14.9766 5.29676H6.17658C5.9988 5.29676 5.85436 5.35232 5.74325 5.46343C5.63213 5.57454 5.57658 5.71898 5.57658 5.89676V14.6968H2.10991V1.8301H14.9766V5.29676Z" fill="white"/>
</svg>
