<svg width="40" height="39" viewBox="0 0 40 39" fill="none" xmlns="http://www.w3.org/2000/svg">
<path d="M1.59004 33.6333C1.41226 33.6333 1.23448 33.7222 1.05671 33.9C0.878928 34.0778 0.790039 34.2556 0.790039 34.4333V37.7667C0.790039 38.0333 0.878928 38.2556 1.05671 38.4333C1.23448 38.6111 1.41226 38.7 1.59004 38.7H30.79C31.0567 38.7 31.2789 38.6111 31.4567 38.4333C31.6345 38.2556 31.6789 38.0333 31.59 37.7667V34.4333C31.59 34.2556 31.5234 34.0778 31.39 33.9C31.2567 33.7222 31.0567 33.6333 30.79 33.6333H1.59004ZM2.52337 35.3667H29.99V36.9667H2.52337V35.3667ZM28.2567 18.7C28.0789 18.7 27.9012 18.7667 27.7234 18.9C27.5456 19.0333 27.4567 19.2333 27.4567 19.5V33.6333H4.92337V22.1667C5.01226 21.9 4.96782 21.7 4.79004 21.5667C4.61226 21.4333 4.41226 21.3667 4.19004 21.3667C3.96782 21.3667 3.76782 21.4333 3.59004 21.5667C3.41226 21.7 3.32337 21.9 3.32337 22.1667V34.4333C3.32337 34.7 3.41226 34.9222 3.59004 35.1C3.76782 35.2778 3.94559 35.3667 4.12337 35.3667H28.2567C28.5234 35.3667 28.7456 35.2778 28.9234 35.1C29.1012 34.9222 29.19 34.7 29.19 34.4333V19.5C29.19 19.2333 29.1012 19.0333 28.9234 18.9C28.7456 18.7667 28.5234 18.7 28.2567 18.7ZM4.92337 9.50001C4.56782 9.50001 4.34559 9.67779 4.25671 10.0333L0.923372 19.2333C0.834484 19.5 0.856706 19.7445 0.990039 19.9667C1.12337 20.1889 1.32337 20.3 1.59004 20.3H30.79C31.1456 20.3 31.39 20.1889 31.5234 19.9667C31.6567 19.7445 31.6789 19.5 31.59 19.2333L28.2567 10.0333C28.1678 9.67779 27.9012 9.50001 27.4567 9.50001H23.3234C23.0567 9.50001 22.8567 9.5889 22.7234 9.76668C22.59 9.94446 22.5234 10.1445 22.5234 10.3667C22.5234 10.5889 22.59 10.7667 22.7234 10.9C22.8567 11.0333 23.0567 11.1 23.3234 11.1H26.9234L29.59 18.7H2.79004L5.59004 11.1H9.59004C9.76782 11.1 9.94559 11.0333 10.1234 10.9C10.3012 10.7667 10.39 10.5889 10.39 10.3667C10.39 10.1445 10.3012 9.94446 10.1234 9.76668C9.94559 9.5889 9.76782 9.50001 9.59004 9.50001H4.92337ZM9.59004 6.56668C9.32337 6.56668 9.12337 6.65557 8.99004 6.83334C8.85671 7.01112 8.79004 7.23334 8.79004 7.50001V15.3667C8.79004 15.5445 8.85671 15.7222 8.99004 15.9C9.12337 16.0778 9.32337 16.1667 9.59004 16.1667H22.9234C23.1012 16.1667 23.2789 16.0778 23.4567 15.9C23.6345 15.7222 23.7234 15.5445 23.7234 15.3667V7.50001C23.7234 7.23334 23.6345 7.01112 23.4567 6.83334C23.2789 6.65557 23.0789 6.56668 22.8567 6.56668C22.6345 6.56668 22.4567 6.65557 22.3234 6.83334C22.19 7.01112 22.1234 7.23334 22.1234 7.50001V14.4333H10.39V7.50001C10.39 7.23334 10.3012 7.01112 10.1234 6.83334C9.94559 6.65557 9.76782 6.56668 9.59004 6.56668ZM9.19004 0.300011C8.74559 0.300011 8.47893 0.522232 8.39004 0.966679L6.25671 7.23334C6.16782 7.50001 6.21226 7.74446 6.39004 7.96668C6.56782 8.1889 6.79004 8.30001 7.05671 8.30001H25.4567C25.7234 8.30001 25.9456 8.1889 26.1234 7.96668C26.3012 7.74446 26.3456 7.50001 26.2567 7.23334L24.1234 0.966679C24.0345 0.522232 23.7678 0.300011 23.3234 0.300011H9.19004ZM9.72337 2.03334H22.79L24.2567 6.56668H8.25671L9.72337 2.03334ZM7.45671 24.5667C7.27893 24.4778 7.10115 24.5222 6.92337 24.7C6.74559 24.8778 6.65671 25.1 6.65671 25.3667V34.4333C6.65671 34.7 6.74559 34.9222 6.92337 35.1C7.10115 35.2778 7.27893 35.3667 7.45671 35.3667H14.6567C14.8345 35.3667 15.0123 35.2778 15.19 35.1C15.3678 34.9222 15.4567 34.7 15.4567 34.4333V25.3667C15.4567 25.1 15.3678 24.9 15.19 24.7667C15.0123 24.6333 14.8345 24.5667 14.6567 24.5667H7.45671ZM8.39004 26.1667H13.7234V33.6333H8.39004V26.1667ZM17.99 24.5667C17.7234 24.4778 17.5012 24.5222 17.3234 24.7C17.1456 24.8778 17.0567 25.1 17.0567 25.3667V30.9667C17.0567 31.1445 17.1456 31.3222 17.3234 31.5C17.5012 31.6778 17.7234 31.7667 17.99 31.7667H25.8567C26.0345 31.7667 26.2123 31.6778 26.39 31.5C26.5678 31.3222 26.6567 31.1445 26.6567 30.9667V28.1667C26.6567 27.9 26.5678 27.7 26.39 27.5667C26.2123 27.4333 26.0123 27.3667 25.79 27.3667C25.5678 27.3667 25.3678 27.4333 25.19 27.5667C25.0123 27.7 24.9234 27.9 24.9234 28.1667V30.1667H18.79V26.1667H25.8567C26.0345 26.1667 26.2123 26.0778 26.39 25.9C26.5678 25.7222 26.6567 25.5222 26.6567 25.3C26.6567 25.0778 26.5678 24.9 26.39 24.7667C26.2123 24.6333 26.0345 24.5667 25.8567 24.5667H17.99ZM13.3234 8.96668C13.0567 8.87779 12.8567 8.92223 12.7234 9.10001C12.59 9.27779 12.5234 9.50001 12.5234 9.76668V13.1C12.5234 13.2778 12.59 13.4556 12.7234 13.6333C12.8567 13.8111 13.0567 13.9 13.3234 13.9H19.19C19.3678 13.9 19.5456 13.8111 19.7234 13.6333C19.9012 13.4556 19.99 13.2778 19.99 13.1V9.76668C19.99 9.50001 19.9012 9.27779 19.7234 9.10001C19.5456 8.92223 19.3678 8.87779 19.19 8.96668H13.3234ZM14.1234 10.5667H18.39V12.1667H14.1234V10.5667ZM34.1234 0.300011C32.79 0.300011 31.6345 0.788898 30.6567 1.76668C29.6789 2.74445 29.19 3.92223 29.19 5.30001C29.19 6.67779 29.6789 7.85557 30.6567 8.83334C31.6345 9.81112 32.8123 10.3 34.19 10.3C35.5678 10.3 36.7456 9.81112 37.7234 8.83334C38.7012 7.85557 39.19 6.67779 39.19 5.30001C39.19 3.92223 38.7012 2.74445 37.7234 1.76668C36.7456 0.788898 35.5456 0.300011 34.1234 0.300011ZM34.1234 2.03334C35.1012 2.03334 35.9012 2.34446 36.5234 2.96668C37.1456 3.5889 37.4567 4.36668 37.4567 5.30001C37.4567 6.23335 37.1456 7.03334 36.5234 7.70001C35.9012 8.36668 35.1234 8.70001 34.19 8.70001C33.2567 8.70001 32.4567 8.36668 31.79 7.70001C31.1234 7.03334 30.79 6.23335 30.79 5.30001C30.79 4.36668 31.1234 3.5889 31.79 2.96668C32.4567 2.34446 33.2345 2.03334 34.1234 2.03334ZM11.19 29.9C11.19 30.1667 11.1012 30.3889 10.9234 30.5667C10.7456 30.7445 10.5456 30.8333 10.3234 30.8333C10.1012 30.8333 9.90115 30.7445 9.72337 30.5667C9.5456 30.3889 9.45671 30.1667 9.45671 29.9C9.45671 29.6333 9.5456 29.4111 9.72337 29.2333C9.90115 29.0556 10.1012 28.9667 10.3234 28.9667C10.5456 28.9667 10.7456 29.0556 10.9234 29.2333C11.1012 29.4111 11.19 29.6333 11.19 29.9ZM20.9234 26.9667C20.5678 26.9667 20.3012 27.1 20.1234 27.3667L19.7234 28.0333C19.5456 28.3 19.5012 28.5445 19.59 28.7667C19.6789 28.9889 19.8123 29.1445 19.99 29.2333C20.1678 29.3222 20.3678 29.3445 20.59 29.3C20.8123 29.2556 21.0123 29.1445 21.19 28.9667L21.59 28.1667C21.6789 27.9889 21.7012 27.7889 21.6567 27.5667C21.6123 27.3445 21.5012 27.1889 21.3234 27.1C21.1456 27.0111 21.0123 26.9667 20.9234 26.9667ZM23.3234 26.9667C23.0567 26.9667 22.8345 27.1 22.6567 27.3667L22.2567 28.0333C22.0789 28.3 22.0345 28.5445 22.1234 28.7667C22.2123 28.9889 22.3456 29.1445 22.5234 29.2333C22.7012 29.3222 22.9012 29.3445 23.1234 29.3C23.3456 29.2556 23.5012 29.1445 23.59 28.9667L23.99 28.1667C24.1678 27.9889 24.2123 27.7889 24.1234 27.5667C24.0345 27.3445 23.9234 27.1889 23.79 27.1C23.6567 27.0111 23.5012 26.9667 23.3234 26.9667Z" fill="black"/>
</svg>
