<svg width="41" height="41" viewBox="0 0 41 41" fill="none" xmlns="http://www.w3.org/2000/svg">
<path d="M38.8567 4.5L21.6567 0.633331C20.7678 0.366665 19.99 0.522221 19.3233 1.1C18.6567 1.67778 18.3233 2.41111 18.3233 3.3V7.3L13.2567 11.5667C12.9011 10.6778 12.3011 9.96667 11.4567 9.43333C10.6122 8.9 9.70111 8.63333 8.72333 8.63333C7.39 8.63333 6.23444 9.1 5.25666 10.0333C4.27889 10.9667 3.74555 12.1444 3.65666 13.5667C2.32333 14.2778 1.47889 15.3444 1.12333 16.7667C0.767776 18.1889 0.989998 19.5222 1.79 20.7667C1.25666 21.5667 0.989998 22.5 0.989998 23.5667C0.989998 25.0778 1.56778 26.3667 2.72333 27.4333V37.7C2.72333 38.5 2.99 39.1667 3.52333 39.7C4.05666 40.2333 4.72333 40.5 5.52333 40.5H38.19C38.99 40.5 39.6567 40.2333 40.19 39.7C40.7233 39.1667 40.99 38.5 40.99 37.7V7.16666C40.99 6.54444 40.79 5.98889 40.39 5.5C39.99 5.01111 39.4789 4.67778 38.8567 4.5ZM7.52333 38.1H5.52333C5.25666 38.1 5.12333 37.9667 5.12333 37.7V28.5C5.92333 28.6778 6.72333 28.6333 7.52333 28.3667V38.1ZM7.92333 25.5667C7.30111 26.1 6.63444 26.3444 5.92333 26.3C5.21222 26.2556 4.61222 25.9889 4.12333 25.5C3.63444 25.0111 3.39 24.3667 3.39 23.5667C3.39 22.7667 3.65666 22.1 4.19 21.5667C4.45666 21.3889 4.59 21.1222 4.59 20.7667C4.59 20.4111 4.41222 20.1 4.05666 19.8333L3.92333 19.5667C3.30111 18.8556 3.12333 18.0556 3.39 17.1667C3.65666 16.2778 4.27889 15.7 5.25666 15.4333C5.52333 15.3444 5.72333 15.1667 5.85666 14.9C5.99 14.6333 6.05666 14.3667 6.05666 14.1C5.87889 13.3 6.07889 12.5889 6.65666 11.9667C7.23444 11.3444 7.92333 11.0333 8.72333 11.0333C9.52333 11.0333 10.19 11.3444 10.7233 11.9667C11.2567 12.5889 11.4789 13.3 11.39 14.1C11.39 14.3667 11.4567 14.6333 11.59 14.9C11.7233 15.1667 11.9233 15.3444 12.19 15.4333C12.8122 15.6111 13.3011 15.9667 13.6567 16.5C14.0122 17.0333 14.1456 17.6111 14.0567 18.2333C13.9678 18.8556 13.7011 19.4333 13.2567 19.9667C12.99 20.1444 12.8567 20.4111 12.8567 20.7667C12.8567 21.1222 12.99 21.3889 13.2567 21.5667C13.79 22.1 14.0567 22.7444 14.0567 23.5C14.0567 24.2556 13.8122 24.9 13.3233 25.4333C12.8344 25.9667 12.2122 26.2556 11.4567 26.3C10.7011 26.3444 10.0567 26.1 9.52333 25.5667C9.25666 25.3889 8.96778 25.3 8.65666 25.3C8.34555 25.3 8.10111 25.3889 7.92333 25.5667ZM18.3233 38.1H9.92333V28.3667C10.9011 28.7222 11.9011 28.7222 12.9233 28.3667C13.9456 28.0111 14.79 27.4111 15.4567 26.5667C16.1233 25.7222 16.4567 24.7444 16.4567 23.6333C16.4567 22.5222 16.1456 21.5667 15.5233 20.7667C16.3233 19.6111 16.59 18.3667 16.3233 17.0333C16.0567 15.7 15.39 14.6333 14.3233 13.8333L18.3233 10.3667V38.1ZM33.5233 38.1H25.79V29.0333C25.79 28.7667 25.9233 28.6333 26.19 28.6333H33.1233C33.39 28.6333 33.5233 28.7667 33.5233 29.0333V38.1ZM38.59 37.7C38.59 37.9667 38.4567 38.1 38.19 38.1H35.79V29.0333C35.79 28.2333 35.5233 27.5667 34.99 27.0333C34.4567 26.5 33.8344 26.2333 33.1233 26.2333H26.19C25.4789 26.2333 24.8567 26.5 24.3233 27.0333C23.79 27.5667 23.5233 28.2333 23.5233 29.0333V38.1H20.7233V3.3C20.7233 3.12222 20.7678 2.98889 20.8567 2.9C20.9456 2.81111 21.0344 2.81111 21.1233 2.9L38.3233 6.76667C38.5011 6.85555 38.59 6.98889 38.59 7.16666V37.7ZM24.59 10.1C24.3233 10.1 24.0789 10.2111 23.8567 10.4333C23.6344 10.6556 23.5233 10.9444 23.5233 11.3V11.4333C23.5233 11.7 23.6344 11.9667 23.8567 12.2333C24.0789 12.5 24.3456 12.6333 24.6567 12.6333C24.9678 12.6333 25.2344 12.5 25.4567 12.2333C25.6789 11.9667 25.79 11.7 25.79 11.4333V11.3C25.79 10.9444 25.6789 10.6556 25.4567 10.4333C25.2344 10.2111 24.9456 10.1 24.59 10.1ZM29.6567 10.1C29.3011 10.1 29.0122 10.2111 28.79 10.4333C28.5678 10.6556 28.4567 10.9444 28.4567 11.3V11.4333C28.4567 11.7 28.5678 11.9667 28.79 12.2333C29.0122 12.5 29.3011 12.6333 29.6567 12.6333C30.0122 12.6333 30.3011 12.5 30.5233 12.2333C30.7456 11.9667 30.8567 11.7 30.8567 11.4333V11.3C30.8567 10.9444 30.7456 10.6556 30.5233 10.4333C30.3011 10.2111 30.0122 10.1 29.6567 10.1ZM34.59 10.1C34.3233 10.1 34.0789 10.2111 33.8567 10.4333C33.6344 10.6556 33.5233 10.9444 33.5233 11.3V11.4333C33.5233 11.7 33.6344 11.9667 33.8567 12.2333C34.0789 12.5 34.3456 12.6333 34.6567 12.6333C34.9678 12.6333 35.2344 12.5 35.4567 12.2333C35.6789 11.9667 35.79 11.7 35.79 11.4333V11.3C35.79 10.9444 35.6789 10.6556 35.4567 10.4333C35.2344 10.2111 34.9456 10.1 34.59 10.1ZM24.59 15.5667C24.3233 15.5667 24.0789 15.6778 23.8567 15.9C23.6344 16.1222 23.5233 16.4111 23.5233 16.7667V16.9C23.5233 17.2556 23.6344 17.5444 23.8567 17.7667C24.0789 17.9889 24.3456 18.1 24.6567 18.1C24.9678 18.1 25.2344 17.9889 25.4567 17.7667C25.6789 17.5444 25.79 17.2556 25.79 16.9V16.7667C25.79 16.4111 25.6789 16.1222 25.4567 15.9C25.2344 15.6778 24.9456 15.5667 24.59 15.5667ZM29.6567 15.5667C29.3011 15.5667 29.0122 15.6778 28.79 15.9C28.5678 16.1222 28.4567 16.4111 28.4567 16.7667V16.9C28.4567 17.2556 28.5678 17.5444 28.79 17.7667C29.0122 17.9889 29.3011 18.1 29.6567 18.1C30.0122 18.1 30.3011 17.9889 30.5233 17.7667C30.7456 17.5444 30.8567 17.2556 30.8567 16.9V16.7667C30.8567 16.4111 30.7456 16.1222 30.5233 15.9C30.3011 15.6778 30.0122 15.5667 29.6567 15.5667ZM34.59 15.5667C34.3233 15.5667 34.0789 15.6778 33.8567 15.9C33.6344 16.1222 33.5233 16.4111 33.5233 16.7667V16.9C33.5233 17.2556 33.6344 17.5444 33.8567 17.7667C34.0789 17.9889 34.3456 18.1 34.6567 18.1C34.9678 18.1 35.2344 17.9889 35.4567 17.7667C35.6789 17.5444 35.79 17.2556 35.79 16.9V16.7667C35.79 16.4111 35.6789 16.1222 35.4567 15.9C35.2344 15.6778 34.9456 15.5667 34.59 15.5667ZM24.59 21.3C24.3233 21.3 24.0789 21.4111 23.8567 21.6333C23.6344 21.8556 23.5233 22.1 23.5233 22.3667V22.6333C23.5233 22.9 23.6344 23.1667 23.8567 23.4333C24.0789 23.7 24.3456 23.8333 24.6567 23.8333C24.9678 23.8333 25.2344 23.7 25.4567 23.4333C25.6789 23.1667 25.79 22.9 25.79 22.6333V22.3667C25.79 22.1 25.6789 21.8556 25.4567 21.6333C25.2344 21.4111 24.9456 21.3 24.59 21.3ZM29.6567 21.3C29.3011 21.3 29.0122 21.4111 28.79 21.6333C28.5678 21.8556 28.4567 22.1 28.4567 22.3667V22.6333C28.4567 22.9 28.5678 23.1667 28.79 23.4333C29.0122 23.7 29.3011 23.8333 29.6567 23.8333C30.0122 23.8333 30.3011 23.7 30.5233 23.4333C30.7456 23.1667 30.8567 22.9 30.8567 22.6333V22.3667C30.8567 22.1 30.7456 21.8556 30.5233 21.6333C30.3011 21.4111 30.0122 21.3 29.6567 21.3ZM34.59 21.3C34.3233 21.3 34.0789 21.4111 33.8567 21.6333C33.6344 21.8556 33.5233 22.1 33.5233 22.3667V22.6333C33.5233 22.9 33.6344 23.1667 33.8567 23.4333C34.0789 23.7 34.3456 23.8333 34.6567 23.8333C34.9678 23.8333 35.2344 23.7 35.4567 23.4333C35.6789 23.1667 35.79 22.9 35.79 22.6333V22.3667C35.79 22.1 35.6789 21.8556 35.4567 21.6333C35.2344 21.4111 34.9456 21.3 34.59 21.3Z" fill="black"/>
</svg>
