<svg width="68" height="66" viewBox="0 0 68 66" fill="none" xmlns="http://www.w3.org/2000/svg">
<path d="M66.7969 62.3253H63.2812V12.7484C63.2812 12.3727 63.1578 12.0124 62.938 11.7468C62.7182 11.4811 62.4202 11.3319 62.1094 11.3319H49.2188V1.41648C49.2188 1.04081 49.0953 0.680521 48.8755 0.414879C48.6557 0.149237 48.3577 0 48.0469 0H19.9219C19.6111 0 19.313 0.149237 19.0932 0.414879C18.8735 0.680521 18.75 1.04081 18.75 1.41648V22.6638H5.85938C5.54857 22.6638 5.2505 22.813 5.03073 23.0786C4.81097 23.3443 4.6875 23.7046 4.6875 24.0802V62.3253H1.17188C0.861074 62.3253 0.563003 62.4746 0.343234 62.7402C0.123465 63.0058 0 63.3661 0 63.7418C0 64.1175 0.123465 64.4778 0.343234 64.7434C0.563003 65.009 0.861074 65.1583 1.17188 65.1583H66.7969C67.1077 65.1583 67.4057 65.009 67.6255 64.7434C67.8453 64.4778 67.9688 64.1175 67.9688 63.7418C67.9688 63.3661 67.8453 63.0058 67.6255 62.7402C67.4057 62.4746 67.1077 62.3253 66.7969 62.3253ZM7.03125 25.4967H19.9219C20.2327 25.4967 20.5307 25.3475 20.7505 25.0818C20.9703 24.8162 21.0938 24.4559 21.0938 24.0802V2.83297H46.875V12.7484C46.875 13.124 46.9985 13.4843 47.2182 13.75C47.438 14.0156 47.7361 14.1648 48.0469 14.1648H60.9375V62.3253H39.8438V46.744C39.8438 46.3683 39.7203 46.008 39.5005 45.7424C39.2807 45.4767 38.9827 45.3275 38.6719 45.3275H29.2969C28.9861 45.3275 28.688 45.4767 28.4682 45.7424C28.2485 46.008 28.125 46.3683 28.125 46.744V62.3253H7.03125V25.4967ZM37.5 62.3253H30.4688V48.1605H37.5V62.3253ZM30.4688 12.7484C30.4688 12.3727 30.5922 12.0124 30.812 11.7468C31.0318 11.4811 31.3298 11.3319 31.6406 11.3319H36.3281C36.6389 11.3319 36.937 11.4811 37.1568 11.7468C37.3765 12.0124 37.5 12.3727 37.5 12.7484C37.5 13.124 37.3765 13.4843 37.1568 13.75C36.937 14.0156 36.6389 14.1648 36.3281 14.1648H31.6406C31.3298 14.1648 31.0318 14.0156 30.812 13.75C30.5922 13.4843 30.4688 13.124 30.4688 12.7484ZM30.4688 24.0802C30.4688 23.7046 30.5922 23.3443 30.812 23.0786C31.0318 22.813 31.3298 22.6638 31.6406 22.6638H36.3281C36.6389 22.6638 36.937 22.813 37.1568 23.0786C37.3765 23.3443 37.5 23.7046 37.5 24.0802C37.5 24.4559 37.3765 24.8162 37.1568 25.0818C36.937 25.3475 36.6389 25.4967 36.3281 25.4967H31.6406C31.3298 25.4967 31.0318 25.3475 30.812 25.0818C30.5922 24.8162 30.4688 24.4559 30.4688 24.0802ZM46.875 24.0802C46.875 23.7046 46.9985 23.3443 47.2182 23.0786C47.438 22.813 47.7361 22.6638 48.0469 22.6638H52.7344C53.0452 22.6638 53.3432 22.813 53.563 23.0786C53.7828 23.3443 53.9062 23.7046 53.9062 24.0802C53.9062 24.4559 53.7828 24.8162 53.563 25.0818C53.3432 25.3475 53.0452 25.4967 52.7344 25.4967H48.0469C47.7361 25.4967 47.438 25.3475 47.2182 25.0818C46.9985 24.8162 46.875 24.4559 46.875 24.0802ZM21.0938 35.4121C21.0938 35.7878 20.9703 36.1481 20.7505 36.4137C20.5307 36.6794 20.2327 36.8286 19.9219 36.8286H15.2344C14.9236 36.8286 14.6255 36.6794 14.4057 36.4137C14.186 36.1481 14.0625 35.7878 14.0625 35.4121C14.0625 35.0364 14.186 34.6761 14.4057 34.4105C14.6255 34.1449 14.9236 33.9956 15.2344 33.9956H19.9219C20.2327 33.9956 20.5307 34.1449 20.7505 34.4105C20.9703 34.6761 21.0938 35.0364 21.0938 35.4121ZM21.0938 46.744C21.0938 47.1197 20.9703 47.4799 20.7505 47.7456C20.5307 48.0112 20.2327 48.1605 19.9219 48.1605H15.2344C14.9236 48.1605 14.6255 48.0112 14.4057 47.7456C14.186 47.4799 14.0625 47.1197 14.0625 46.744C14.0625 46.3683 14.186 46.008 14.4057 45.7424C14.6255 45.4767 14.9236 45.3275 15.2344 45.3275H19.9219C20.2327 45.3275 20.5307 45.4767 20.7505 45.7424C20.9703 46.008 21.0938 46.3683 21.0938 46.744ZM30.4688 35.4121C30.4688 35.0364 30.5922 34.6761 30.812 34.4105C31.0318 34.1449 31.3298 33.9956 31.6406 33.9956H36.3281C36.6389 33.9956 36.937 34.1449 37.1568 34.4105C37.3765 34.6761 37.5 35.0364 37.5 35.4121C37.5 35.7878 37.3765 36.1481 37.1568 36.4137C36.937 36.6794 36.6389 36.8286 36.3281 36.8286H31.6406C31.3298 36.8286 31.0318 36.6794 30.812 36.4137C30.5922 36.1481 30.4688 35.7878 30.4688 35.4121ZM46.875 35.4121C46.875 35.0364 46.9985 34.6761 47.2182 34.4105C47.438 34.1449 47.7361 33.9956 48.0469 33.9956H52.7344C53.0452 33.9956 53.3432 34.1449 53.563 34.4105C53.7828 34.6761 53.9062 35.0364 53.9062 35.4121C53.9062 35.7878 53.7828 36.1481 53.563 36.4137C53.3432 36.6794 53.0452 36.8286 52.7344 36.8286H48.0469C47.7361 36.8286 47.438 36.6794 47.2182 36.4137C46.9985 36.1481 46.875 35.7878 46.875 35.4121ZM46.875 46.744C46.875 46.3683 46.9985 46.008 47.2182 45.7424C47.438 45.4767 47.7361 45.3275 48.0469 45.3275H52.7344C53.0452 45.3275 53.3432 45.4767 53.563 45.7424C53.7828 46.008 53.9062 46.3683 53.9062 46.744C53.9062 47.1197 53.7828 47.4799 53.563 47.7456C53.3432 48.0112 53.0452 48.1605 52.7344 48.1605H48.0469C47.7361 48.1605 47.438 48.0112 47.2182 47.7456C46.9985 47.4799 46.875 47.1197 46.875 46.744Z" fill="black"/>
</svg>
