<svg width="40" height="39" viewBox="0 0 40 39" fill="none" xmlns="http://www.w3.org/2000/svg">
<path d="M39.19 37.1H36.79V24.4333C36.79 24.2555 36.7233 24.0778 36.59 23.9C36.4567 23.7222 36.2789 23.6333 36.0567 23.6333C35.8344 23.6333 35.6344 23.7222 35.4567 23.9C35.2789 24.0778 35.19 24.2555 35.19 24.4333V37.1H29.59V30.5667C29.59 30.3889 29.5233 30.2111 29.39 30.0333C29.2567 29.8555 29.0567 29.7667 28.79 29.7667H23.7233C23.5455 29.7667 23.3678 29.8555 23.19 30.0333C23.0122 30.2111 22.9233 30.3889 22.9233 30.5667V37.1H17.4567V4.96665H35.19V17.5C35.19 17.7666 35.2789 17.9667 35.4567 18.1C35.6344 18.2333 35.8344 18.3 36.0567 18.3C36.2789 18.3 36.4567 18.2333 36.59 18.1C36.7233 17.9667 36.79 17.7666 36.79 17.5V4.16665C36.79 3.89998 36.7233 3.69998 36.59 3.56665C36.4567 3.43332 36.2567 3.36665 35.99 3.36665H34.1233V1.09998C34.1233 0.922203 34.0344 0.766647 33.8567 0.633316C33.6789 0.499981 33.5011 0.433315 33.3233 0.433315H19.59C19.4122 0.433315 19.2344 0.499981 19.0567 0.633316C18.8789 0.766647 18.79 0.922203 18.79 1.09998V3.36665H16.6567C16.4789 3.36665 16.3233 3.43332 16.19 3.56665C16.0567 3.69998 15.99 3.89998 15.99 4.16665V16.3H9.85666V13.9C9.85666 13.6333 9.76777 13.4333 9.58999 13.3C9.41221 13.1666 9.23444 13.1 9.05666 13.1H3.58999C3.41221 13.1 3.23443 13.1666 3.05666 13.3C2.87888 13.4333 2.78999 13.6333 2.78999 13.9V37.1H0.78999C0.523324 37.1 0.323324 37.1667 0.18999 37.3C0.0566569 37.4333 -0.0100098 37.6111 -0.0100098 37.8333C-0.0100098 38.0555 0.0566569 38.2333 0.18999 38.3667C0.323324 38.5 0.523324 38.5667 0.78999 38.5667H39.19C39.4567 38.5667 39.6567 38.5 39.79 38.3667C39.9233 38.2333 39.99 38.0555 39.99 37.8333C39.99 37.6111 39.9233 37.4333 39.79 37.3C39.6567 37.1667 39.4567 37.1 39.19 37.1ZM20.39 1.89998H32.5233V3.36665H20.39V1.89998ZM4.38999 14.7H8.25666V16.3H4.38999V14.7ZM11.0567 37.1H9.18999V34.3H11.0567V37.1ZM15.99 37.1H12.6567V33.5C12.6567 33.3222 12.5678 33.1444 12.39 32.9667C12.2122 32.7889 12.0344 32.7 11.8567 32.7H8.38999C8.21221 32.7 8.03444 32.7889 7.85666 32.9667C7.67888 33.1444 7.58999 33.3222 7.58999 33.5V37.1H4.38999V17.9H15.99V37.1ZM28.1233 37.1H24.5233V31.3667H28.1233V37.1ZM36.6567 20.7C36.4789 20.3444 36.2122 20.2111 35.8567 20.3C35.5011 20.3889 35.3011 20.6111 35.2567 20.9667C35.2122 21.3222 35.3455 21.5889 35.6567 21.7666C35.9678 21.9444 36.2344 21.9444 36.4567 21.7666C36.6789 21.5889 36.79 21.4111 36.79 21.2333C36.79 21.0555 36.7455 20.8778 36.6567 20.7ZM25.0567 8.43332C25.0567 8.25554 24.9678 8.09998 24.79 7.96665C24.6122 7.83331 24.4344 7.76665 24.2567 7.76665H20.9233C20.7455 7.76665 20.5678 7.83331 20.39 7.96665C20.2122 8.09998 20.1233 8.25554 20.1233 8.43332V11.7666C20.1233 12.0333 20.2122 12.2333 20.39 12.3666C20.5678 12.5 20.7455 12.5666 20.9233 12.5666H24.2567C24.4344 12.5666 24.6122 12.5 24.79 12.3666C24.9678 12.2333 25.0567 12.0333 25.0567 11.7666V8.43332ZM23.4567 10.9666H21.7233V9.23332H23.4567V10.9666ZM32.39 8.43332C32.39 8.25554 32.3011 8.09998 32.1233 7.96665C31.9455 7.83331 31.7678 7.76665 31.59 7.76665H28.2567C28.0789 7.76665 27.9011 7.83331 27.7233 7.96665C27.5455 8.09998 27.4567 8.25554 27.4567 8.43332V11.7666C27.4567 12.0333 27.5455 12.2333 27.7233 12.3666C27.9011 12.5 28.0789 12.5666 28.2567 12.5666H31.59C31.7678 12.5666 31.9455 12.5 32.1233 12.3666C32.3011 12.2333 32.39 12.0333 32.39 11.7666V8.43332ZM30.79 10.9666H29.0567V9.23332H30.79V10.9666ZM25.0567 15.3666C25.0567 15.1 24.9678 14.9 24.79 14.7666C24.6122 14.6333 24.4344 14.5666 24.2567 14.5666H20.9233C20.7455 14.5666 20.5678 14.6333 20.39 14.7666C20.2122 14.9 20.1233 15.1 20.1233 15.3666V18.5666C20.1233 18.8333 20.2122 19.0333 20.39 19.1666C20.5678 19.3 20.7455 19.3666 20.9233 19.3666H24.2567C24.4344 19.3666 24.6122 19.3 24.79 19.1666C24.9678 19.0333 25.0567 18.8333 25.0567 18.5666V15.3666ZM23.4567 17.9H21.7233V16.1666H23.4567V17.9ZM32.39 15.3666C32.39 15.1 32.3011 14.9 32.1233 14.7666C31.9455 14.6333 31.7678 14.5666 31.59 14.5666H28.2567C28.0789 14.5666 27.9011 14.6333 27.7233 14.7666C27.5455 14.9 27.4567 15.1 27.4567 15.3666V18.5666C27.4567 18.8333 27.5455 19.0333 27.7233 19.1666C27.9011 19.3 28.0789 19.3666 28.2567 19.3666H31.59C31.7678 19.3666 31.9455 19.3 32.1233 19.1666C32.3011 19.0333 32.39 18.8333 32.39 18.5666V15.3666ZM30.79 17.9H29.0567V16.1666H30.79V17.9ZM24.2567 21.3666H20.9233C20.7455 21.3666 20.5678 21.4333 20.39 21.5667C20.2122 21.7 20.1233 21.9 20.1233 22.1666V25.5C20.1233 25.6778 20.2122 25.8555 20.39 26.0333C20.5678 26.2111 20.7455 26.3 20.9233 26.3H24.2567C24.4344 26.3 24.6122 26.2111 24.79 26.0333C24.9678 25.8555 25.0567 25.6778 25.0567 25.5V22.1666C25.0567 21.9 24.9678 21.7 24.79 21.5667C24.6122 21.4333 24.4344 21.3666 24.2567 21.3666ZM23.4567 24.7H21.7233V22.9667H23.4567V24.7ZM31.59 21.3666H28.2567C28.0789 21.3666 27.9011 21.4333 27.7233 21.5667C27.5455 21.7 27.4567 21.9 27.4567 22.1666V25.5C27.4567 25.6778 27.5455 25.8555 27.7233 26.0333C27.9011 26.2111 28.0789 26.3 28.2567 26.3H31.59C31.7678 26.3 31.9455 26.2111 32.1233 26.0333C32.3011 25.8555 32.39 25.6778 32.39 25.5V22.1666C32.39 21.9 32.3011 21.7 32.1233 21.5667C31.9455 21.4333 31.7678 21.3666 31.59 21.3666ZM30.79 24.7H29.0567V22.9667H30.79V24.7ZM6.92332 19.6333C6.74555 19.6333 6.56777 19.7222 6.38999 19.9C6.21221 20.0778 6.12332 20.2555 6.12332 20.4333V30.3C6.12332 30.4778 6.21221 30.6555 6.38999 30.8333C6.56777 31.0111 6.74555 31.1 6.92332 31.1C7.1011 31.1 7.27888 31.0111 7.45666 30.8333C7.63444 30.6555 7.72332 30.4778 7.72332 30.3V20.4333C7.72332 20.2555 7.63444 20.0778 7.45666 19.9C7.27888 19.7222 7.1011 19.6333 6.92332 19.6333ZM10.1233 31.1C10.3011 31.1 10.4789 31.0111 10.6567 30.8333C10.8344 30.6555 10.9233 30.4778 10.9233 30.3V20.4333C10.9233 20.2555 10.8344 20.0778 10.6567 19.9C10.4789 19.7222 10.3011 19.6333 10.1233 19.6333C9.94555 19.6333 9.76777 19.7222 9.58999 19.9C9.41221 20.0778 9.32332 20.2555 9.32332 20.4333V30.3C9.32332 30.4778 9.41221 30.6555 9.58999 30.8333C9.76777 31.0111 9.94555 31.1 10.1233 31.1ZM13.3233 31.1C13.5011 31.1 13.6789 31.0111 13.8567 30.8333C14.0344 30.6555 14.1233 30.4778 14.1233 30.3V20.4333C14.1233 20.2555 14.0344 20.0778 13.8567 19.9C13.6789 19.7222 13.5011 19.6333 13.3233 19.6333C13.1455 19.6333 12.9678 19.7222 12.79 19.9C12.6122 20.0778 12.5233 20.2555 12.5233 20.4333V30.3C12.5233 30.4778 12.6122 30.6555 12.79 30.8333C12.9678 31.0111 13.1455 31.1 13.3233 31.1Z" fill="black"/>
</svg>
