<svg width="69" height="69" viewBox="0 0 69 69" fill="none" xmlns="http://www.w3.org/2000/svg">
<path fill-rule="evenodd" clip-rule="evenodd" d="M34.3375 0.90625H34.6625C37.4719 0.90625 39.8125 0.90625 41.6688 1.15625C43.6312 1.41875 45.4031 2 46.825 3.42188C48.25 4.84688 48.8312 6.61875 49.0938 8.57812C49.2812 9.95312 49.3281 11.5906 49.3406 13.4844C51.3656 13.55 53.1719 13.6719 54.7781 13.8844C58.4406 14.3781 61.4062 15.4156 63.7469 17.7531C66.0844 20.0938 67.1219 23.0594 67.6156 26.7219C68.0938 30.2844 68.0938 34.8312 68.0938 40.575V40.925C68.0938 46.6688 68.0938 51.2188 67.6156 54.7781C67.1219 58.4406 66.0844 61.4062 63.7469 63.7469C61.4062 66.0844 58.4406 67.1219 54.7781 67.6156C51.2156 68.0938 46.6688 68.0938 40.925 68.0938H28.075C22.3313 68.0938 17.7812 68.0938 14.2219 67.6156C10.5594 67.1219 7.59375 66.0844 5.25313 63.7469C2.91563 61.4062 1.87813 58.4406 1.38437 54.7781C0.90625 51.2156 0.90625 46.6688 0.90625 40.925V40.575C0.90625 34.8312 0.90625 30.2812 1.38437 26.7219C1.87813 23.0594 2.91563 20.0938 5.25313 17.7531C7.59375 15.4156 10.5594 14.3781 14.2219 13.8844C16.0268 13.6632 17.8415 13.5297 19.6594 13.4844C19.6719 11.5906 19.7219 9.95312 19.9062 8.57812C20.1687 6.61875 20.75 4.84688 22.1719 3.42188C23.5969 2 25.3687 1.42188 27.3281 1.15625C29.1875 0.90625 31.5312 0.90625 34.3375 0.90625ZM24.35 13.4125C25.5312 13.4062 26.7729 13.4042 28.075 13.4062H40.925C42.2271 13.4062 43.4688 13.4083 44.65 13.4125C44.6375 11.6312 44.5938 10.2875 44.45 9.20312C44.2531 7.7625 43.9188 7.14375 43.5125 6.7375C43.1063 6.33125 42.4875 5.99687 41.0438 5.8C39.5375 5.6 37.5125 5.59375 34.5 5.59375C31.4875 5.59375 29.4625 5.6 27.9531 5.80312C26.5125 5.99687 25.8938 6.33125 25.4875 6.74063C25.0813 7.15 24.7469 7.7625 24.55 9.20312C24.4062 10.2844 24.3625 11.6281 24.35 13.4125ZM14.8438 18.5312C11.7 18.9531 9.8875 19.7469 8.5625 21.0688C7.24375 22.3906 6.45 24.2031 6.02812 27.3469C5.59687 30.5563 5.59063 34.7906 5.59063 40.75C5.59063 46.7094 5.59687 50.9438 6.02812 54.1563C6.45 57.2969 7.24375 59.1094 8.56562 60.4313C9.8875 61.7531 11.7 62.5469 14.8438 62.9688C18.0562 63.4 22.2875 63.4062 28.2469 63.4062H40.7469C46.7062 63.4062 50.9406 63.4 54.1531 62.9688C57.2937 62.5469 59.1063 61.7531 60.4281 60.4313C61.75 59.1094 62.5437 57.2969 62.9656 54.1531C63.3969 50.9437 63.4031 46.7094 63.4031 40.75C63.4031 34.7906 63.3969 30.5594 62.9656 27.3438C62.5437 24.2031 61.75 22.3906 60.4281 21.0688C59.1063 19.7469 57.2938 18.9531 54.15 18.5312C50.9406 18.1 46.7062 18.0938 40.7469 18.0938H28.2469C22.2875 18.0938 18.0594 18.1 14.8438 18.5312ZM34.5 25.9062C35.1216 25.9062 35.7177 26.1532 36.1573 26.5927C36.5968 27.0323 36.8438 27.6284 36.8438 28.25V28.2812C40.2469 29.1375 43.0938 31.8219 43.0938 35.5406C43.0938 36.1622 42.8468 36.7584 42.4073 37.1979C41.9677 37.6374 41.3716 37.8844 40.75 37.8844C40.1284 37.8844 39.5323 37.6374 39.0927 37.1979C38.6532 36.7584 38.4062 36.1622 38.4062 35.5406C38.4062 34.3406 37.075 32.6781 34.5 32.6781C31.925 32.6781 30.5938 34.3406 30.5938 35.5406C30.5938 36.7406 31.925 38.4062 34.5 38.4062C38.8281 38.4062 43.0938 41.4062 43.0938 45.9594C43.0938 49.6781 40.2469 52.3594 36.8438 53.2188V53.25C36.8438 53.8716 36.5968 54.4677 36.1573 54.9073C35.7177 55.3468 35.1216 55.5938 34.5 55.5938C33.8784 55.5938 33.2823 55.3468 32.8427 54.9073C32.4032 54.4677 32.1562 53.8716 32.1562 53.25V53.2188C28.7531 52.3625 25.9062 49.6781 25.9062 45.9594C25.9062 45.3378 26.1532 44.7416 26.5927 44.3021C27.0323 43.8626 27.6284 43.6156 28.25 43.6156C28.8716 43.6156 29.4677 43.8626 29.9073 44.3021C30.3468 44.7416 30.5938 45.3378 30.5938 45.9594C30.5938 47.1594 31.925 48.8219 34.5 48.8219C37.075 48.8219 38.4062 47.1594 38.4062 45.9594C38.4062 44.7594 37.075 43.0938 34.5 43.0938C30.1719 43.0938 25.9062 40.0938 25.9062 35.5406C25.9062 31.8219 28.7531 29.1375 32.1562 28.2812V28.25C32.1562 27.6284 32.4032 27.0323 32.8427 26.5927C33.2823 26.1532 33.8784 25.9062 34.5 25.9062Z" fill="#099C00"/>
</svg>
