<svg width="40" height="39" viewBox="0 0 40 39" fill="none" xmlns="http://www.w3.org/2000/svg">
<path d="M27.99 27.3667C27.6344 27.3667 27.39 27.1889 27.2567 26.8333C27.1233 26.4778 27.19 26.1667 27.4567 25.9C27.7233 25.6333 28.0344 25.6111 28.39 25.8333C28.7455 26.0555 28.8789 26.3 28.79 26.5667C28.7011 26.8333 28.59 27.0333 28.4567 27.1667C28.3233 27.3 28.1678 27.3667 27.99 27.3667ZM23.59 12.7H16.39C16.1233 12.7 15.9233 12.7667 15.79 12.9C15.6567 13.0333 15.59 13.2333 15.59 13.5V23.3667C15.59 23.6333 15.6567 23.8333 15.79 23.9667C15.9233 24.1 16.1233 24.1667 16.39 24.1667H23.59C23.8567 24.1667 24.0567 24.1 24.19 23.9667C24.3233 23.8333 24.39 23.6333 24.39 23.3667V13.5C24.39 13.2333 24.3233 13.0333 24.19 12.9C24.0567 12.7667 23.8567 12.7 23.59 12.7ZM17.0567 14.3H19.19V22.7H17.0567V14.3ZM22.9233 22.7H20.79V14.3H22.9233V22.7ZM39.59 19.9L28.79 13.5V7.76665C28.79 7.49999 28.7011 7.27776 28.5233 7.09999L20.5233 0.833321C20.1678 0.65554 19.8122 0.65554 19.4567 0.833321L11.4567 7.09999C11.2789 7.27776 11.19 7.49999 11.19 7.76665V13.5L0.38999 19.9C0.123324 19.9889 -0.0100098 20.2111 -0.0100098 20.5667V24.8333C-0.0100098 25.1 0.0788791 25.3 0.256657 25.4333C0.434435 25.5667 0.58999 25.6333 0.723324 25.6333C0.856657 25.6333 1.01221 25.5889 1.18999 25.5L1.72332 25.2333V37.5C1.72332 37.6778 1.78999 37.8555 1.92332 38.0333C2.05666 38.2111 2.25666 38.3 2.52332 38.3H37.4567C37.7233 38.3 37.9233 38.2111 38.0567 38.0333C38.19 37.8555 38.2567 37.6778 38.2567 37.5V25.2333L38.79 25.5C38.9678 25.5889 39.1233 25.6333 39.2567 25.6333C39.39 25.6333 39.5455 25.5667 39.7233 25.4333C39.9011 25.3 39.99 25.1 39.99 24.8333V20.5667C39.99 20.2111 39.8567 19.9889 39.59 19.9ZM19.99 2.43332L27.19 8.16665V10.7L20.5233 5.49998C20.1678 5.23332 19.8122 5.23332 19.4567 5.49998L12.79 10.7V8.16665L19.99 2.43332ZM1.58999 20.9667L11.19 15.2333V17.7667L1.58999 23.5V20.9667ZM3.32332 28.0333H6.65666V32.7H3.32332V28.0333ZM3.32332 34.1667H7.45666C7.72332 34.1667 7.92332 34.1 8.05666 33.9667C8.18999 33.8333 8.25666 33.6333 8.25666 33.3667V27.2333C8.25666 26.9667 8.18999 26.7667 8.05666 26.6333C7.92332 26.5 7.72332 26.4333 7.45666 26.4333H3.32332V24.3L11.19 19.6333V36.7H3.32332V34.1667ZM18.1233 36.7V28.1667H21.8567V36.7H18.1233ZM36.6567 32.7H33.0567V28.0333H36.6567V32.7ZM36.6567 26.4333H32.2567C32.0789 26.4333 31.9233 26.5 31.79 26.6333C31.6567 26.7667 31.59 26.9667 31.59 27.2333V33.3667C31.59 33.6333 31.6567 33.8333 31.79 33.9667C31.9233 34.1 32.0789 34.1667 32.2567 34.1667H36.6567V36.7H28.79V30.0333C28.79 29.8555 28.7233 29.6778 28.59 29.5C28.4567 29.3222 28.2789 29.2333 28.0567 29.2333C27.8344 29.2333 27.6344 29.3222 27.4567 29.5C27.2789 29.6778 27.19 29.8555 27.19 30.0333V36.7H23.3233V27.5C23.3233 27.2333 23.2567 27.0333 23.1233 26.9C22.99 26.7667 22.8344 26.7 22.6567 26.7H17.3233C17.1455 26.7 16.99 26.7667 16.8567 26.9C16.7233 27.0333 16.6567 27.2333 16.6567 27.5V36.7H12.79V12.7L19.99 7.09999L27.19 12.7V22.9667C27.19 23.2333 27.2789 23.4333 27.4567 23.5667C27.6344 23.7 27.8344 23.7667 28.0567 23.7667C28.2789 23.7667 28.4567 23.7 28.59 23.5667C28.7233 23.4333 28.79 23.2333 28.79 22.9667V19.6333L36.6567 24.3V26.4333ZM38.39 23.5L28.79 17.7667V15.2333L38.39 20.9667V23.5Z" fill="black"/>
</svg>
